<svg width="84" height="100" viewBox="0 0 84 100" fill="none" xmlns="http://www.w3.org/2000/svg">
<path d="M43.3236 13.2786C41.9907 6.16793 49.0662 -2.46681 61.5609 0.658095C74.0559 3.783 80.0255 20.4496 74.7797 31.3494C74.7797 31.3494 74.7793 15.8434 67.1237 12.4644C59.4681 9.08581 48.1153 8.51575 48.3637 15.1541L43.3236 13.2786Z" fill="#BD6D2B"/>
<path opacity="0.3" d="M50.3271 11.3131C47.9322 10.1676 45.7398 8.55052 44.5049 6.47034C43.328 8.61047 42.9007 11.0209 43.3237 13.279L48.3642 15.1544C48.2983 13.3946 49.0475 12.1415 50.3271 11.3131Z" fill="#E49557"/>
<path d="M72.4575 8.63098C71.8126 8.49087 71.2279 7.89133 70.7115 7.55578C69.8652 7.00559 66.9486 5.75848 66.7241 7.57598C66.6254 8.3756 67.5296 9.00164 67.1209 9.82079C66.835 10.3935 66.054 10.5982 65.53 10.8685C65.2096 11.0338 64.8512 11.2246 64.5823 11.4902C65.4591 11.7801 66.3127 12.1063 67.1242 12.4647C74.7798 15.8434 74.7801 31.3497 74.7801 31.3497C78.0982 24.4546 76.9272 15.2534 72.4575 8.63098Z" fill="#F7EFE9"/>
<path d="M24.1651 87.0486C23.6607 89.0168 22.9074 90.988 21.7875 92.4835C18.3959 97.0172 14.6963 93.7012 14.6963 93.7012C11.4638 93.931 11.3488 92.1321 11.3488 92.1321C9.30509 91.8101 9.93312 88.0469 9.93312 88.0469C9.93312 88.0469 8.96358 87.7607 9.38227 83.2423C9.54755 81.4427 11.6662 79.967 13.9494 77.8481C14.848 77.0176 15.7702 76.0865 16.6112 75.0007L25.2135 79.0766C25.2135 79.0766 25.1979 83.0581 24.1651 87.0486Z" fill="#F7EFE9"/>
<path opacity="0.3" d="M21.1607 92.1519C20.3469 92.7578 19.4853 93.4014 18.4621 93.5845C17.5125 93.7545 16.3157 93.5279 15.474 93.0608C15.2905 92.9591 15.115 92.8426 14.9593 92.7018C14.89 92.6392 14.797 92.4881 14.7125 92.4374C13.835 91.9085 14.3306 92.3957 13.9765 92.4586C13.6479 92.5173 13.4402 92.6256 13.0861 92.5256C12.6257 92.395 12.311 92.027 11.9635 91.7233C11.6316 91.4328 11.1944 91.2612 10.8926 90.9393C10.2123 90.2138 10.6747 89.2476 10.7625 88.4056C10.838 87.6825 10.3713 87.4944 9.94497 87.0518C9.66441 86.7607 9.44844 86.4099 9.30005 86.0339C9.414 87.8915 9.93338 88.0472 9.93338 88.0472C9.93338 88.0472 9.30502 91.8104 11.3491 92.1324C11.3491 92.1324 11.464 93.9313 14.6966 93.7015C14.6966 93.7015 18.3962 97.0175 21.7878 92.4838C22.1713 91.9717 22.5089 91.401 22.811 90.7965C22.2932 91.2801 21.7377 91.722 21.1607 92.1519Z" fill="#E49557"/>
<path d="M56.3974 91.4557C55.2589 95.8482 54.25 95.7889 54.25 95.7889C54.25 95.7889 53.565 99.5422 51.5331 99.1523C51.5331 99.1523 50.815 100.806 47.8517 99.4935C47.8517 99.4935 43.2469 101.359 41.5933 95.944C41.0504 94.1695 41.007 92.0767 41.1948 90.0648C41.5728 85.9452 42.9186 82.17 42.9186 82.17L52.3907 81.2515C52.825 82.595 53.3977 83.8137 53.9773 84.9256C55.3951 87.6471 56.8455 89.7259 56.3974 91.4557Z" fill="#BD6D2B"/>
<path opacity="0.3" d="M55.4318 94.1698C55.0661 94.5047 54.7647 94.7001 54.2724 94.7389C53.8849 94.7694 53.6043 94.7207 53.4076 95.09C53.293 95.3053 53.2605 95.5968 53.2095 95.835C53.0561 96.5531 53.0078 97.51 52.4215 98.04C51.9799 98.4392 51.7163 98.1202 51.5795 97.7204C51.2284 98.4571 50.6841 99.1546 49.8809 99.3905C49.1336 99.6101 48.4079 99.2646 48.2363 98.5322C47.2436 98.9463 46.1717 99.2163 45.1107 98.8883C44.0971 98.575 43.2544 97.777 42.6476 96.9304C41.8927 95.8774 41.4293 94.6541 41.1438 93.3875C41.21 94.2795 41.3492 95.1447 41.5936 95.9439C43.2472 101.359 47.852 99.4938 47.852 99.4938C50.8153 100.806 51.5334 99.1527 51.5334 99.1527C53.5653 99.5425 54.2503 95.7893 54.2503 95.7893C54.2503 95.7893 54.8061 95.8201 55.558 94.0417C55.5153 94.0834 55.4765 94.1288 55.4318 94.1698Z" fill="#E49557"/>
<path opacity="0.15" d="M25.2131 79.0766C25.2131 79.0766 25.1982 83.0581 24.1651 87.0485C19.8069 84.8269 16.2743 81.6073 13.949 77.8477C14.8476 77.0173 15.7698 76.0862 16.6108 75.0004L25.2131 79.0766Z" fill="#E49557"/>
<path opacity="0.2" d="M53.9776 84.9256C50.4939 87.6613 46.062 89.4749 41.1951 90.0648C41.573 85.9452 42.9188 82.17 42.9188 82.17L52.3909 81.2515C52.8252 82.5947 53.3979 83.8137 53.9776 84.9256Z" fill="#E49557"/>
<path d="M45.9614 12.9305L45.9617 12.9289C45.9389 12.9249 45.9157 12.9216 45.8928 12.9176C45.87 12.9136 45.8471 12.909 45.8243 12.905L45.8239 12.9067C29.8463 10.1829 13.6739 19.1522 10.8802 45.9388C8.07859 72.8026 14.2214 82.6053 33.1411 85.9104C52.0608 89.2155 61.1633 82.076 67.6357 55.8538C74.0899 29.7064 61.9159 15.7851 45.9614 12.9305Z" fill="#DB8948"/>
<path d="M45.2902 16.6391L45.2906 16.6377C45.275 16.6351 45.2598 16.6331 45.2442 16.6305C45.229 16.6278 45.2137 16.6245 45.1981 16.6218L45.1978 16.6232C34.4783 14.808 23.2628 22.9263 20.54 45.7547C17.8093 68.6486 21.658 76.7798 34.3491 78.9968C47.0398 81.2138 53.4175 74.8692 58.6107 52.4053C63.7886 30.0056 55.9899 18.5659 45.2902 16.6391Z" fill="#F7EFE9"/>
<path opacity="0.3" d="M10.2545 55.3801C10.2203 57.0486 10.2369 58.6329 10.3061 60.1357C11.2028 60.1735 12.0428 60.0055 12.9335 60.3616C14.4456 60.9658 15.2671 62.3756 15.6487 63.8847C15.9806 65.1964 16.0087 66.5531 16.3678 67.8609C16.8183 69.5005 17.4427 71.1021 18.1787 72.6334C19.6567 75.7076 21.775 78.549 24.4636 80.6666C25.8061 81.7239 27.2328 82.5199 28.7767 83.2383C29.7555 83.6938 30.7167 84.1959 31.7403 84.546C32.2199 84.71 32.7101 84.8349 33.1991 84.9634C33.7025 85.0081 34.206 85.0571 34.7128 85.0654C35.7946 85.083 36.8692 84.9366 37.9444 84.8399C39.6403 84.6875 41.2525 84.4225 42.8739 83.8829C46.1213 82.8024 49.0773 80.8474 51.5103 78.4566C52.7223 77.2654 53.8525 75.9703 54.8323 74.5807C55.6137 73.4724 56.1003 72.2054 56.8571 71.0838C57.728 69.7933 58.9784 68.746 60.6058 68.69C61.5644 68.6572 62.2977 69.1 63.1543 69.3684C63.729 67.9781 64.2819 66.4929 64.8155 64.9119L10.2545 55.3801Z" fill="#E49557"/>
<path d="M32.7824 19.0362C39.916 18.6043 40.2058 26.4557 40.2058 26.4557C40.2058 26.4557 33.3171 45.3005 19.4991 41.5823C5.68112 37.8642 25.888 21.6103 25.888 21.6103C25.888 21.6103 28.1434 19.3171 32.7824 19.0362Z" fill="#A15E27"/>
<path d="M59.9359 25.6866C53.809 22.0071 49.9242 28.8363 49.9242 28.8363C49.9242 28.8363 47.3253 48.7318 61.2976 51.8197C75.27 54.9075 64.8608 31.1556 64.8608 31.1556C64.8608 31.1556 63.9201 28.0791 59.9359 25.6866Z" fill="#A15E27"/>
<path d="M55.504 68.1063C51.1416 70.9689 50.8826 87.7992 31.4961 83.0515C24.188 81.2618 20.7077 78.0071 19.0714 74.4068C16.3651 68.4505 18.6971 61.5418 17.1137 58.7044C16.4612 57.5345 15.9455 56.0721 15.5688 54.5136C14.4761 49.9892 14.5605 44.6599 15.9077 43.4052C17.7222 41.7169 19.0213 32.8933 22.4314 28.6332C25.8442 24.3738 37.4717 23.9128 45.4979 25.8783C53.5242 27.8439 63.6253 33.6267 64.681 38.9802C65.7366 44.3336 62.8141 52.7597 63.6406 55.0949C64.4667 57.4302 59.8641 65.2405 55.504 68.1063Z" fill="#E49557"/>
<path opacity="0.3" d="M17.1137 58.7044C17.1585 58.7845 17.1989 58.8687 17.2376 58.9548C17.5987 58.6703 17.9389 58.3612 18.2416 58.0141C19.6037 56.4523 20.1856 54.4201 20.6567 52.4456C21.1356 50.439 21.5802 48.426 22.0008 46.4065C22.8392 42.3809 23.6895 38.2888 25.51 34.571C27.1367 31.2487 29.51 28.3195 32.9208 26.7465C35.1732 25.7077 37.6208 25.2469 40.0815 24.976C32.9556 24.2748 25.1287 25.2671 22.4314 28.6332C19.0213 32.8933 17.7226 41.7165 15.9077 43.4051C14.5605 44.6599 14.4761 49.9892 15.5688 54.5136C15.9455 56.072 16.4612 57.5345 17.1137 58.7044Z" fill="#E49557"/>
<path opacity="0.3" d="M55.501 68.1056C55.4244 68.156 55.3496 68.212 55.2754 68.2706C55.0866 67.8516 54.9279 67.4203 54.8196 66.9725C54.3333 64.9579 54.7563 62.887 55.2509 60.9184C55.7534 58.9177 56.2893 56.927 56.8494 54.9415C57.9664 50.9842 59.1032 46.9623 59.2065 42.8238C59.2989 39.1259 58.548 35.4315 56.2499 32.4603C54.7325 30.4981 52.7745 28.9585 50.7175 27.5812C57.3612 30.252 63.8439 34.7489 64.6802 38.9804C65.7359 44.3339 62.8107 52.7593 63.6398 55.0952C64.2546 56.8306 61.867 61.5958 58.807 65.1033C57.7534 66.311 56.6202 67.3696 55.501 68.1056Z" fill="#E49557"/>
<path opacity="0.3" d="M48.4109 69.3107C50.7438 70.1656 53.1486 69.2295 55.3596 68.2097C55.4073 68.1742 55.4553 68.1384 55.504 68.1063C59.5256 65.463 63.7492 58.618 63.7337 55.7372C62.1146 58.8644 59.5392 61.5302 57.0234 63.9128C54.6339 66.1758 51.7892 68.7764 48.4109 69.3107Z" fill="#E49557"/>
<path opacity="0.3" d="M43.965 77.0968C46.075 77.6135 48.1896 77.542 50.139 76.9855C47.1996 81.6096 42.3419 85.7077 31.4958 83.0515C24.1877 81.2618 20.7074 78.007 19.0711 74.4068C18.2778 72.6632 17.9194 70.8367 17.7683 69.058C19.2397 70.4521 21.0824 71.4929 23.1894 72.009C27.7028 73.1143 32.2395 71.5237 35.1163 68.2679C36.1633 72.4846 39.4545 75.9921 43.965 77.0968Z" fill="#E49557"/>
<path opacity="0.3" d="M33.2147 83.4241C33.2928 83.439 33.371 83.4532 33.4485 83.4675C33.6708 83.5079 33.8901 83.545 34.1067 83.5794C34.1534 83.5867 34.2008 83.595 34.2471 83.602C35.2226 83.7513 36.1441 83.8415 37.0127 83.8746C37.01 83.8726 37.0074 83.8703 37.0047 83.8679C37.3959 83.8829 37.7801 83.8898 38.1508 83.8829C35.8344 82.7027 34.005 80.9216 32.8301 78.7496C32.7728 78.6234 32.7148 78.4976 32.6608 78.3684C32.6539 78.3734 32.6466 78.3783 32.6396 78.3833C32.6357 78.3757 32.6314 78.3681 32.6277 78.3601C32.5201 78.4499 32.4108 78.5347 32.3014 78.6201C30.256 80.0037 27.8105 80.7377 25.2109 80.7139C25.5365 80.8914 25.8804 81.0624 26.2341 81.2303C26.2308 81.231 26.2275 81.2316 26.2239 81.2323C27.0092 81.6043 27.8681 81.9504 28.8026 82.2684C28.847 82.2836 28.8927 82.2982 28.9377 82.3134C29.1457 82.3833 29.3574 82.4516 29.573 82.5182C29.6482 82.5417 29.7241 82.5649 29.8003 82.5877C29.999 82.6477 30.2014 82.706 30.4068 82.7636C30.4849 82.7855 30.5621 82.808 30.6413 82.8295C30.9208 82.9054 31.2047 82.9799 31.4962 83.0511H31.4965C31.788 83.1227 32.0745 83.1876 32.3574 83.2495C32.4376 83.2671 32.5164 83.2826 32.5959 83.2995C32.8043 83.3439 33.0106 83.3853 33.2147 83.4241Z" fill="#E49557"/>
<path d="M43.6791 33.0937C30.6617 30.0261 40.4853 52.0253 27.8193 70.7592L34.2768 71.4843L40.3388 73.8252C37.7635 51.3585 56.6408 36.3885 43.6791 33.0937Z" fill="#D68747"/>
<path d="M28.3319 59.2122C19.6505 58.5793 19.0711 74.4068 19.0711 74.4068C16.3649 68.4505 18.6968 61.5419 17.1135 58.7045C16.461 57.5345 15.9452 56.0721 15.5686 54.5136C20.3517 51.615 21.5438 38.2687 31.3194 40.6625C36.016 41.8129 35.5473 45.9041 34.8749 50.1701C34.1478 54.7862 32.845 59.5418 28.3319 59.2122Z" fill="#F7EFE9"/>
<path d="M32.8327 77.7761C32.8185 78.12 32.6721 78.4449 32.4846 78.7443C32.2888 79.0415 32.0338 79.3088 31.739 79.5446C31.4465 79.7788 31.154 80.0471 30.7237 80.1471C30.5111 80.1978 30.2868 80.2319 30.0463 80.2233C29.8122 80.2177 29.5465 80.1717 29.3372 80.0438L29.3458 79.9762C29.5511 79.903 29.6966 79.8268 29.8529 79.7483C29.9278 79.7092 30.0036 79.6642 30.0785 79.6294C30.1527 79.588 30.2272 79.5479 30.3027 79.5118C30.5919 79.3472 30.9612 79.2677 31.2723 79.1014C31.5793 78.9358 31.8695 78.7453 32.1262 78.5257C32.3882 78.3088 32.6032 78.0534 32.7486 77.7559L32.8327 77.7761Z" fill="#211B18"/>
<path d="M32.8327 77.7762C32.8245 78.1071 32.897 78.433 33.0292 78.7464C33.155 79.0597 33.3246 79.3628 33.5204 79.6516C33.7195 79.9428 34.0103 80.1843 34.1908 80.4638C34.2412 80.5307 34.2889 80.6006 34.3352 80.6718C34.3856 80.7374 34.432 80.8123 34.4803 80.8815C34.583 81.0233 34.6767 81.1584 34.8248 81.3181L34.8009 81.382C34.5562 81.3989 34.2995 81.3168 34.0891 81.2134C33.8718 81.1101 33.689 80.9763 33.5237 80.8332C33.1882 80.5453 33.053 80.1723 32.902 79.8295C32.7493 79.484 32.6469 79.1289 32.6105 78.7752C32.5826 78.4231 32.6032 78.0673 32.7493 77.7556L32.8327 77.7762Z" fill="#211B18"/>
<path d="M35.1711 68.049C30.6457 66.9406 26.5466 69.2119 27.8425 72.099C27.8425 72.099 27.4519 77.1431 32.6332 78.4118C37.8144 79.6807 39.7989 75.0272 39.7989 75.0272C42.2822 73.0656 39.6965 69.1573 35.1711 68.049Z" fill="#1A1A1A"/>
<path opacity="0.3" d="M39.4257 70.3766C39.6231 70.8572 39.6947 71.3776 39.5658 71.9079C39.1932 73.4409 37.6724 73.7204 36.3359 73.477C34.5386 73.1497 32.6273 72.7585 30.9069 72.1365C29.57 71.6532 28.6429 70.2732 29.5799 68.9367C29.8158 68.6001 30.1185 68.3226 30.4581 68.1023C28.305 68.7621 27.0397 70.312 27.8416 72.099C27.8416 72.099 27.4511 77.1431 32.6323 78.4118C37.8135 79.6808 39.798 75.0272 39.798 75.0272C41.3022 73.8394 40.9448 71.938 39.4257 70.3766Z" fill="#534741"/>
<path opacity="0.3" d="M36.9964 75.2352C36.0726 75.4019 35.6532 76.1389 34.8407 76.4814C34.16 76.7682 33.3392 76.5897 32.6926 76.2945C32.0381 75.9958 31.6108 75.4963 31.1944 74.9308C30.5495 74.055 29.9513 73.4783 29.0083 72.9328C28.5134 72.6469 28.0795 72.3074 27.7708 71.9113C27.7939 71.9735 27.8138 72.0358 27.842 72.0987C27.842 72.0987 27.4514 77.1428 32.6327 78.4115C37.8139 79.6805 39.7984 75.0269 39.7984 75.0269C39.8259 75.005 39.8484 74.9812 39.8749 74.959C38.9984 75.2511 37.8815 75.0756 36.9964 75.2352Z" fill="#534741"/>
<path d="M28.8767 72.5032C31.2729 72.5254 31.6873 73.8974 31.2557 74.639C30.8237 75.3803 28.8767 72.5032 28.8767 72.5032Z" fill="#28272F"/>
<path d="M38.6941 74.9073C36.5589 73.8195 35.5573 74.845 35.5973 75.7019C35.6378 76.5591 38.6941 74.9073 38.6941 74.9073Z" fill="#28272F"/>
<path d="M57.4592 56.8635C56.5208 60.6949 52.6556 63.0394 48.8242 62.101C44.9897 61.1619 42.6456 57.2967 43.584 53.4653C43.742 52.8197 43.9854 52.2129 44.2955 51.6607C45.8254 48.9339 49.0338 47.4447 52.2227 48.2254C55.4142 49.0071 57.5728 51.8167 57.6619 54.9489C57.6821 55.5792 57.6169 56.2209 57.4592 56.8635Z" fill="#603813"/>
<path d="M57.5321 55.6107C56.6239 59.3193 52.8805 61.5899 49.172 60.6817C45.4608 59.7728 43.1928 56.0301 44.1011 52.3215C44.1564 52.0953 44.2216 51.877 44.2955 51.6611C45.8255 48.9343 49.0339 47.445 52.2227 48.2258C55.4142 49.0075 57.5729 51.8171 57.662 54.9493C57.6285 55.1692 57.5865 55.3898 57.5321 55.6107Z" fill="#1A1A1A"/>
<path d="M55.6545 56.2037C54.3064 57.2905 52.1139 56.8079 50.7575 55.1255C49.4011 53.4431 49.3941 51.1983 50.7419 50.1112C52.0901 49.0244 54.2825 49.507 55.639 51.1894C56.9957 52.8718 57.0027 55.1166 55.6545 56.2037Z" fill="#F2F2F2"/>
<path d="M47.6654 54.7886C46.8532 55.4435 45.6637 55.3159 45.0089 54.5037C44.354 53.6915 44.4815 52.5021 45.2937 51.8472C46.1059 51.1923 47.2954 51.3199 47.9503 52.1321C48.6051 52.9443 48.4776 54.1337 47.6654 54.7886Z" fill="#F2F2F2"/>
<path opacity="0.3" d="M54.6234 58.8496C53.7881 58.6416 52.9312 59.5257 52.1319 59.6456C51.4856 59.7426 51.0461 59.4968 50.7052 58.9645C50.4492 58.5641 50.262 58.1629 49.8225 57.9228C49.3849 57.6836 48.895 57.6502 48.4064 57.6952C47.6429 57.7658 46.8976 58.0215 46.1252 57.9874C45.4574 57.9579 44.8459 57.684 44.4415 57.1397C44.2192 56.8406 44.0841 56.4928 43.8976 56.1732C43.7489 55.9181 43.5839 55.7757 43.3994 55.7144C43.6303 58.7088 45.7466 61.3491 48.8225 62.1024C51.424 62.7397 54.0408 61.8616 55.7473 60.0341C55.2462 59.8009 55.2336 59.0013 54.6234 58.8496Z" fill="#534741"/>
<path d="M48.6614 60.2302C47.8492 60.885 46.5283 60.5942 45.7108 59.5806C44.8933 58.567 44.8893 57.2142 45.7015 56.5594C46.5137 55.9045 47.8347 56.1954 48.6522 57.2089C49.4693 58.2225 49.4736 59.5753 48.6614 60.2302Z" fill="#F2F2F2"/>
<path d="M52.699 61.3196C52.1133 61.792 51.2554 61.6999 50.7831 61.1142C50.3107 60.5286 50.4028 59.6707 50.9884 59.1984C51.5741 58.726 52.432 58.8181 52.9043 59.4037C53.3767 59.9897 53.2849 60.8473 52.699 61.3196Z" fill="#F2F2F2"/>
<path d="M34.4467 51.2277C33.5083 55.0592 29.6431 57.4037 25.8117 56.4653C21.9772 55.5262 19.6331 51.661 20.5711 47.8295C20.7291 47.184 20.9726 46.5771 21.2826 46.0249C22.8123 43.2982 26.021 41.8089 29.2098 42.5897C32.4013 43.3714 34.56 46.181 34.6491 49.3132C34.6693 49.9432 34.6041 50.5848 34.4467 51.2277Z" fill="#603813"/>
<path d="M34.5197 49.9746C33.6114 53.6832 29.8681 55.9538 26.1595 55.0456C22.4483 54.1367 20.1803 50.394 21.0886 46.6854C21.1439 46.4592 21.2092 46.2409 21.283 46.0249C22.8127 43.2982 26.0214 41.8089 29.2103 42.5897C32.4017 43.3714 34.5604 46.181 34.6495 49.3132C34.6161 49.5331 34.5737 49.754 34.5197 49.9746Z" fill="#1A1A1A"/>
<path d="M32.6421 50.5676C31.2939 51.6544 29.1015 51.1718 27.745 49.4894C26.3886 47.807 26.3817 45.5622 27.7295 44.4751C29.0776 43.3883 31.2701 43.8709 32.6265 45.5533C33.9833 47.2356 33.9899 49.4805 32.6421 50.5676Z" fill="#F2F2F2"/>
<path d="M24.653 49.1528C23.8408 49.8077 22.6513 49.6801 21.9964 48.8679C21.3416 48.0557 21.4691 46.8663 22.2813 46.2114C23.0935 45.5565 24.283 45.6841 24.9378 46.4963C25.5927 47.3085 25.4652 48.4979 24.653 49.1528Z" fill="#F2F2F2"/>
<path opacity="0.3" d="M32.5775 53.6093C32.1803 53.14 31.8481 52.7461 31.1647 52.8316C30.76 52.8822 30.3926 53.0886 30.0173 53.233C29.4903 53.4361 28.9723 53.5232 28.5208 53.1158C28.1932 52.8203 28.057 52.3867 27.7917 52.0432C27.2226 51.3072 26.3909 51.5782 25.6927 51.9425C25.0633 52.2708 24.4406 52.6984 23.6996 52.6696C22.9772 52.6414 22.469 52.2343 22.1703 51.5997C21.9685 51.1714 21.8254 50.544 21.2769 50.4162C21.001 50.3519 20.7158 50.4417 20.4438 50.5825C20.8605 53.3645 22.9086 55.7548 25.8099 56.4653C28.5787 57.1433 31.3655 56.1062 33.0528 54.0333C32.8921 53.9326 32.7335 53.7935 32.5775 53.6093Z" fill="#534741"/>
<path d="M25.6487 54.5941C24.8365 55.249 23.5156 54.9582 22.6981 53.9446C21.8806 52.931 21.8766 51.5782 22.6888 50.9233C23.501 50.2685 24.822 50.5593 25.6395 51.5729C26.457 52.5865 26.4613 53.9393 25.6487 54.5941Z" fill="#F2F2F2"/>
<path d="M29.6865 55.6839C29.1009 56.1562 28.243 56.0641 27.7706 55.4785C27.2983 54.8929 27.3904 54.035 27.976 53.5626C28.5616 53.0903 29.4195 53.1824 29.8919 53.768C30.3642 54.3536 30.2721 55.2115 29.6865 55.6839Z" fill="#F2F2F2"/>
<path opacity="0.3" d="M50.7533 41.7775C49.7335 41.8268 49.0488 42.6013 48.8348 43.651C48.6225 44.6924 48.9461 45.6477 49.6858 46.3953C50.8458 47.5682 52.5781 48.1823 54.124 48.655C54.9621 48.911 55.8389 49.1561 56.7223 49.1416C57.5447 49.1283 58.8064 48.6232 58.7084 47.6493C55.3536 47.8812 51.5069 45.1157 50.7533 41.7775Z" fill="#D68747"/>
<path d="M59.0823 47.6099C57.966 48.7762 55.1041 48.0213 52.7957 45.8126C50.4876 43.6039 49.6072 40.7778 50.7235 39.6112C51.8397 38.4446 53.5837 40.3681 55.8918 42.5768C58.1999 44.7855 60.1986 46.4433 59.0823 47.6099Z" fill="#BD6D2B"/>
<path opacity="0.3" d="M33.4908 37.5496C34.3722 38.0646 34.622 39.0676 34.3265 40.0975C34.0337 41.119 33.3053 41.8166 32.304 42.1382C30.7332 42.6424 28.9131 42.3863 27.3238 42.0912C26.4622 41.9312 25.5716 41.743 24.7948 41.322C24.0717 40.9302 23.186 39.899 23.7229 39.0809C26.5908 40.8368 31.2798 40.162 33.4908 37.5496Z" fill="#D68747"/>
<path d="M23.4096 38.8735C23.8604 40.4237 26.7475 41.0769 29.8151 40.1846C32.8827 39.2922 34.9692 37.1928 34.5184 35.6426C34.0675 34.0924 31.6319 34.9921 28.5643 35.8844C25.4967 36.7764 22.9584 37.3233 23.4096 38.8735Z" fill="#BD6D2B"/>
<path opacity="0.3" d="M22.8454 63.0496C20.3817 62.73 18.6811 60.7883 17.1918 58.8621C17.166 58.8085 17.1402 58.7548 17.1117 58.7038C14.7668 54.5014 14.1842 46.4791 15.529 43.9315C15.5198 47.4533 16.5721 51.0071 17.702 54.2824C18.7752 57.3941 20.0961 61.0145 22.8454 63.0496Z" fill="#B3B3B3"/>
<path opacity="0.3" d="M34.0731 68.8065C33.926 68.3587 31.3845 68.1325 30.774 68.5697C30.3705 68.8585 30.0489 69.4253 30.4514 69.8559C30.8237 70.2537 31.5746 70.1746 32.0608 70.112C32.6677 70.0341 34.4001 69.8016 34.0731 68.8065Z" fill="#F2F2F2"/>
<path d="M59.9359 25.6865C70.4061 32.4961 64.4203 33.1772 72.3173 38.1345C80.2144 43.0915 84.7762 47.2171 82.9133 51.0256C81.0504 54.8342 72.479 71.6035 63.3066 69.6601C54.1343 67.7168 59.2569 53.7458 61.1496 47.6185C63.0426 41.4909 65.9638 31.7005 59.9359 25.6865Z" fill="#BD6D2B"/>
<path opacity="0.3" d="M79.452 43.2312C80.2009 45.1892 80.2075 47.2346 79.708 49.2584C79.0409 51.9623 78.1767 54.4523 76.8716 56.9177C75.9369 58.6835 74.8868 60.4169 73.4546 61.8279C71.9534 63.3066 70.1167 64.3301 68.1756 65.1165C68.0183 65.1801 67.9245 64.9545 68.0481 64.8614C69.7033 63.6147 70.4184 61.3887 70.7854 59.3301C69.5529 61.8568 67.0047 64.084 64.4319 64.9002C61.6691 65.7766 59.4898 64.4153 58.0178 62.3563C58.1338 65.9264 59.4677 68.8469 63.3064 69.6601C72.4784 71.6035 81.0502 54.8342 82.9131 51.0256C84.0996 48.6003 82.6779 46.0461 79.452 43.2312Z" fill="#E49557"/>
<path d="M32.7823 19.0366C20.3503 20.2374 25.344 23.6074 16.0501 24.3543C6.75621 25.1013 0.804174 26.6518 0.69619 30.8903C0.588206 35.1289 0.441139 53.9608 9.47303 56.4759C18.5053 58.991 20.4185 44.234 21.5712 37.9255C22.7243 31.6171 24.6577 21.5848 32.7823 19.0366Z" fill="#BD6D2B"/>
<path opacity="0.3" d="M15.3658 51.8528C14.2154 52.2195 13.2024 52.1449 12.2896 51.7978C11.5221 51.7057 10.7708 51.4974 10.0633 51.186C9.97751 51.1608 9.89238 51.1386 9.80593 51.1101C3.92677 49.1919 2.56438 42.491 2.46236 37.0222C2.4342 35.5141 2.52264 33.84 2.81248 32.2027C2.96584 30.7297 3.24673 29.2725 3.84197 27.9068C4.06953 27.3845 4.34313 26.8939 4.64655 26.4255C2.1606 27.4305 0.748195 28.8476 0.69619 30.89C0.588206 35.1285 0.441139 53.9604 9.47303 56.4755C14.2071 57.7939 16.9845 54.3665 18.7229 49.8985C17.7202 50.7358 16.6006 51.4593 15.3658 51.8528Z" fill="#E49557"/>
</svg>
