<?xml version="1.0" encoding="UTF-8"?>
<!DOCTYPE svg PUBLIC "-//W3C//DTD SVG 1.1//EN" "http://www.w3.org/Graphics/SVG/1.1/DTD/svg11.dtd">
<svg xmlns="http://www.w3.org/2000/svg" version="1.1" width="3840px" height="2160px" style="shape-rendering:geometricPrecision; text-rendering:geometricPrecision; image-rendering:optimizeQuality; fill-rule:evenodd; clip-rule:evenodd" xmlns:xlink="http://www.w3.org/1999/xlink">
<g><path style="opacity:1" fill="#016bd6" d="M 2963.5,1162.5 C 2542.5,1162.33 2121.5,1162.5 1700.5,1163C 1688.02,1179.14 1675.19,1194.98 1662,1210.5C 1649.39,1194.79 1636.89,1178.96 1624.5,1163C 1508.5,1162.5 1392.5,1162.33 1276.5,1162.5C 1276.33,1272.5 1276.5,1382.5 1277,1492.5C 1392.43,1491.83 1507.93,1491.17 1623.5,1490.5C 1635.86,1474.64 1648.03,1458.64 1660,1442.5C 1672.41,1458.32 1684.58,1474.32 1696.5,1490.5C 1765.73,1491.17 1834.9,1491.83 1904,1492.5C 1904.41,1492.04 1904.91,1491.71 1905.5,1491.5C 1906.5,1466.18 1906.83,1440.84 1906.5,1415.5C 1927.88,1415.48 1949.04,1415.48 1970,1415.5C 1978.64,1414.37 1987.48,1412.54 1996.5,1410C 2002.01,1408.61 2007.18,1406.44 2012,1403.5C 2012.5,1432.83 2012.67,1462.16 2012.5,1491.5C 2058.07,1491.17 2103.57,1491.5 2149,1492.5C 2149.75,1491.87 2150.58,1491.37 2151.5,1491C 2150.94,1474.07 2150.77,1457.23 2151,1440.5C 2164.71,1457.43 2178.55,1474.26 2192.5,1491C 2429.83,1491.67 2667.17,1491.67 2904.5,1491C 2925.63,1487.68 2945.29,1480.51 2963.5,1469.5C 2963.5,1688.83 2963.5,1908.17 2963.5,2127.5C 2265.83,2127.67 1568.17,2127.5 870.5,2127C 869.833,1777.9 869.5,1428.74 869.5,1079.5C 869.5,730.264 869.833,381.097 870.5,32C 1568.17,31.5 2265.83,31.3333 2963.5,31.5C 2963.5,408.5 2963.5,785.5 2963.5,1162.5 Z"/></g>
<g><path style="opacity:1" fill="#fdfefe" d="M 949.5,731.5 C 994.202,731.368 1038.87,731.535 1083.5,732C 1098.99,765.16 1113.83,798.66 1128,832.5C 1128.01,798.689 1128.67,765.022 1130,731.5C 1186,732.833 1242,732.833 1298,731.5C 1306.27,756.306 1314.94,780.973 1324,805.5C 1332.81,780.723 1341.81,756.057 1351,731.5C 1603,732.833 1855,732.833 2107,731.5C 2107.33,743.833 2107.67,756.167 2108,768.5C 2137.06,746.045 2169.72,733.711 2206,731.5C 2224.09,731.671 2241.75,731.671 2259,731.5C 2325.1,732.331 2391.26,732.831 2457.5,733C 2472.4,765.976 2486.9,799.143 2501,832.5C 2501.01,798.689 2501.67,765.022 2503,731.5C 2549.19,732.446 2595.53,732.446 2642,731.5C 2655.25,750.326 2668.25,769.326 2681,788.5C 2681.01,769.35 2681.68,750.35 2683,731.5C 2729.19,732.446 2775.53,732.446 2822,731.5C 2822.41,731.957 2822.91,732.291 2823.5,732.5C 2824.67,842.165 2824.83,951.832 2824,1061.5C 2776.86,1061.11 2729.86,1061.11 2683,1061.5C 2669.84,1042.51 2657.17,1023.18 2645,1003.5C 2644.99,1022.98 2644.32,1042.32 2643,1061.5C 2574.33,1060.17 2505.67,1060.17 2437,1061.5C 2430.53,1044.42 2423.86,1027.42 2417,1010.5C 2407.57,1009.84 2398.07,1009.51 2388.5,1009.5C 2378.93,1009.51 2369.43,1009.84 2360,1010.5C 2354,1025.83 2348,1041.17 2342,1056.5C 2341.38,1058.75 2340.04,1060.42 2338,1061.5C 2290,1061.5 2242,1061.5 2194,1061.5C 2161.63,1058.92 2132.97,1046.92 2108,1025.5C 2107.98,1037.66 2107.31,1049.66 2106,1061.5C 2036,1060.17 1966,1060.17 1896,1061.5C 1881.62,1044.79 1867.62,1027.79 1854,1010.5C 1853.5,1011 1853,1011.5 1852.5,1012C 1852.83,1027.67 1853.17,1043.33 1853.5,1059C 1852.67,1059.83 1851.83,1060.67 1851,1061.5C 1589,1060.17 1327,1060.17 1065,1061.5C 1057.74,1044.64 1050.74,1027.64 1044,1010.5C 1025.23,1009.17 1006.4,1009.17 987.5,1010.5C 980.85,1027.79 973.683,1044.79 966,1061.5C 934.667,1060.17 903.333,1060.17 872,1061.5C 870.339,1012.31 870.006,962.976 871,913.5C 896.924,852.661 923.09,791.994 949.5,731.5 Z"/></g>
<g><path style="opacity:1" fill="#016bd6" d="M 976.5,772.5 C 1003.41,772.172 1030.24,772.505 1057,773.5C 1092.04,855.073 1127.2,936.573 1162.5,1018C 1138.83,1018.83 1115.16,1018.67 1091.5,1017.5C 1085.3,1001.6 1078.96,985.762 1072.5,970C 1034.5,969.5 996.501,969.333 958.5,969.5C 952.858,985.924 946.525,1002.09 939.5,1018C 916.836,1018.5 894.169,1018.67 871.5,1018.5C 906.109,936.343 941.109,854.343 976.5,772.5 Z"/></g>
<g><path style="opacity:1" fill="#016ad6" d="M 1169.5,772.5 C 1207.1,772.625 1239.93,772.959 1268,773.5C 1286.62,826.02 1305.62,878.353 1325,930.5C 1343.33,878.167 1361.67,825.833 1380,773.5C 1412.43,772.504 1444.93,772.171 1477.5,772.5C 1477.5,854.5 1477.5,936.5 1477.5,1018.5C 1456.83,1018.67 1436.16,1018.5 1415.5,1018C 1416.29,959.898 1416.63,901.565 1416.5,843C 1415.81,841.933 1415.31,840.766 1415,839.5C 1393.67,898.833 1372.33,958.167 1351,1017.5C 1332.9,1018.82 1314.73,1018.82 1296.5,1017.5C 1274.72,958.275 1253.22,898.941 1232,839.5C 1231.5,899.166 1231.33,958.832 1231.5,1018.5C 1210.83,1018.5 1190.17,1018.5 1169.5,1018.5C 1169.54,936.232 1169.54,854.232 1169.5,772.5 Z"/></g>
<g><path style="opacity:1" fill="#016ad6" d="M 1519.5,772.5 C 1586.5,772.5 1653.5,772.5 1720.5,772.5C 1720.21,790.522 1720.21,808.855 1720.5,827.5C 1674.17,827.5 1627.83,827.5 1581.5,827.5C 1581.5,841.5 1581.5,855.5 1581.5,869.5C 1626.5,869.167 1671.5,869.5 1716.5,870.5C 1716.71,871.086 1717.04,871.586 1717.5,872C 1717.17,888.333 1716.83,904.667 1716.5,921C 1671.5,921.5 1626.5,921.667 1581.5,921.5C 1581.5,936.167 1581.5,950.833 1581.5,965.5C 1627.83,965.5 1674.17,965.5 1720.5,965.5C 1720.5,983.167 1720.5,1000.83 1720.5,1018.5C 1653.5,1018.5 1586.5,1018.5 1519.5,1018.5C 1519.5,936.5 1519.5,854.5 1519.5,772.5 Z"/></g>
<g><path style="opacity:1" fill="#016ad6" d="M 1755.5,772.5 C 1804.21,772.51 1852.71,772.51 1901,772.5C 1927.56,774.619 1949.23,786.286 1966,807.5C 1978.43,828.066 1981.76,850.066 1976,873.5C 1966.03,904.726 1944.86,922.726 1912.5,927.5C 1912.35,928.552 1912.52,929.552 1913,930.5C 1939.54,959.368 1965.7,988.535 1991.5,1018C 1966.5,1018.67 1941.5,1018.67 1916.5,1018C 1892.4,989.148 1868.07,960.481 1843.5,932C 1834.84,931.5 1826.17,931.334 1817.5,931.5C 1817.5,960.5 1817.5,989.5 1817.5,1018.5C 1796.83,1018.67 1776.16,1018.5 1755.5,1018C 1755.59,936.14 1755.59,854.306 1755.5,772.5 Z"/></g>
<g><path style="opacity:1" fill="#016ad6" d="M 2003.5,772.5 C 2024.5,772.5 2045.5,772.5 2066.5,772.5C 2066.5,854.5 2066.5,936.5 2066.5,1018.5C 2045.5,1018.67 2024.5,1018.5 2003.5,1018C 2003.59,936.14 2003.59,854.306 2003.5,772.5 Z"/></g>
<g><path style="opacity:1" fill="#016ad6" d="M 2286.5,830.5 C 2262.33,830.169 2238.33,830.502 2214.5,831.5C 2187.71,833.056 2170.21,847.056 2162,873.5C 2157.95,888.72 2157.61,903.72 2161,918.5C 2168.85,948.119 2188.19,963.785 2219,965.5C 2226.35,964.384 2233.85,964.218 2241.5,965C 2233.03,982.754 2224.36,1000.42 2215.5,1018C 2156.95,1021.96 2119.12,995.798 2102,939.5C 2094.28,908.402 2094.95,877.402 2104,846.5C 2117.76,808.069 2144.6,784.569 2184.5,776C 2192.3,774.613 2199.8,773.446 2207,772.5C 2233.29,772.518 2259.79,772.518 2286.5,772.5C 2286.5,791.833 2286.5,811.167 2286.5,830.5 Z"/></g>
<g><path style="opacity:1" fill="#016ad6" d="M 2349.5,772.5 C 2376.41,772.172 2403.24,772.505 2430,773.5C 2465.04,855.073 2500.2,936.573 2535.5,1018C 2511.83,1018.83 2488.16,1018.67 2464.5,1017.5C 2458.26,1001.61 2451.93,985.777 2445.5,970C 2407.5,969.5 2369.5,969.333 2331.5,969.5C 2325.59,985.817 2319.26,1001.98 2312.5,1018C 2289.5,1018.67 2266.5,1018.67 2243.5,1018C 2278.98,936.214 2314.31,854.381 2349.5,772.5 Z"/></g>
<g><path style="opacity:1" fill="#016ad6" d="M 2604.5,1017.5 C 2584.24,1018.49 2563.91,1018.82 2543.5,1018.5C 2542.5,936.668 2542.17,854.668 2542.5,772.5C 2568.84,772.167 2595.18,772.5 2621.5,773.5C 2654.33,824.5 2687.17,875.5 2720,926.5C 2720.5,875.168 2720.67,823.834 2720.5,772.5C 2741.18,772.167 2761.84,772.5 2782.5,773.5C 2782.35,854.987 2782.35,936.487 2782.5,1018C 2756.83,1018.83 2731.16,1018.67 2705.5,1017.5C 2672.25,965.33 2638.75,913.33 2605,861.5C 2604.69,862.766 2604.19,863.933 2603.5,865C 2603.23,915.701 2603.57,966.534 2604.5,1017.5 Z"/></g>
<g><path style="opacity:1" fill="#fdfefe" d="M 1817.5,827.5 C 1843.88,827.045 1870.21,827.545 1896.5,829C 1916.23,837.274 1921.06,850.774 1911,869.5C 1907.06,873.221 1902.56,876.055 1897.5,878C 1870.88,879.464 1844.22,879.964 1817.5,879.5C 1817.5,862.167 1817.5,844.833 1817.5,827.5 Z"/></g>
<g><path style="opacity:1" fill="#8bc3f1" d="M 2214.5,831.5 C 2238.33,830.502 2262.33,830.169 2286.5,830.5C 2284.44,831.216 2282.28,831.883 2280,832.5C 2258.25,831.598 2236.42,831.264 2214.5,831.5 Z"/></g>
<g><path style="opacity:1" fill="#fcfdfe" d="M 1015.5,830.5 C 1026.74,857.693 1037.9,885.026 1049,912.5C 1049.67,913.5 1049.67,914.5 1049,915.5C 1026.67,915.833 1004.33,916.167 982,916.5C 992.282,887.584 1003.45,858.917 1015.5,830.5 Z"/></g>
<g><path style="opacity:1" fill="#fcfdfe" d="M 2388.5,830.5 C 2400.1,858.447 2411.43,886.614 2422.5,915C 2422.17,915.5 2421.83,916 2421.5,916.5C 2399.26,915.36 2377.1,915.36 2355,916.5C 2365.28,887.584 2376.45,858.917 2388.5,830.5 Z"/></g>
<g><path style="opacity:1" fill="#8bc3f1" d="M 2604.5,1017.5 C 2594.69,1018.83 2584.52,1019.5 2574,1019.5C 2563.66,1019.5 2553.49,1019.17 2543.5,1018.5C 2563.91,1018.82 2584.24,1018.49 2604.5,1017.5 Z"/></g>
<g><path style="opacity:1" fill="#fdfdfe" d="M 2963.5,1162.5 C 2963.5,1175.83 2963.5,1189.17 2963.5,1202.5C 2920.1,1203.17 2876.6,1203.84 2833,1204.5C 2812.32,1204.5 2793.16,1210.66 2775.5,1223C 2755.59,1241.08 2746.92,1263.41 2749.5,1290C 2754.45,1328.95 2776.28,1350.12 2815,1353.5C 2838.43,1354.33 2861.93,1354.83 2885.5,1355C 2900.81,1356.81 2907.64,1365.31 2906,1380.5C 2905,1384.16 2903.16,1387.33 2900.5,1390C 2896.09,1393.12 2891.25,1395.29 2886,1396.5C 2843.65,1396.47 2800.82,1396.47 2757.5,1396.5C 2757.5,1414.17 2757.5,1431.83 2757.5,1449.5C 2805.01,1449.49 2852.34,1449.49 2899.5,1449.5C 2929.86,1446.35 2951.19,1431.02 2963.5,1403.5C 2963.5,1425.5 2963.5,1447.5 2963.5,1469.5C 2945.29,1480.51 2925.63,1487.68 2904.5,1491C 2667.17,1491.67 2429.83,1491.67 2192.5,1491C 2178.55,1474.26 2164.71,1457.43 2151,1440.5C 2150.77,1457.23 2150.94,1474.07 2151.5,1491C 2150.58,1491.37 2149.75,1491.87 2149,1492.5C 2103.57,1491.5 2058.07,1491.17 2012.5,1491.5C 2012.67,1462.16 2012.5,1432.83 2012,1403.5C 2007.18,1406.44 2002.01,1408.61 1996.5,1410C 1987.48,1412.54 1978.64,1414.37 1970,1415.5C 1949.04,1415.48 1927.88,1415.48 1906.5,1415.5C 1906.83,1440.84 1906.5,1466.18 1905.5,1491.5C 1904.91,1491.71 1904.41,1492.04 1904,1492.5C 1834.9,1491.83 1765.73,1491.17 1696.5,1490.5C 1684.58,1474.32 1672.41,1458.32 1660,1442.5C 1648.03,1458.64 1635.86,1474.64 1623.5,1490.5C 1507.93,1491.17 1392.43,1491.83 1277,1492.5C 1276.5,1382.5 1276.33,1272.5 1276.5,1162.5C 1392.5,1162.33 1508.5,1162.5 1624.5,1163C 1636.89,1178.96 1649.39,1194.79 1662,1210.5C 1675.19,1194.98 1688.02,1179.14 1700.5,1163C 2121.5,1162.5 2542.5,1162.33 2963.5,1162.5 Z"/></g>
<g><path style="opacity:1" fill="#016ad6" d="M 1318.5,1203.5 C 1385.5,1203.5 1452.5,1203.5 1519.5,1203.5C 1519.5,1221.83 1519.5,1240.17 1519.5,1258.5C 1473.17,1258.5 1426.83,1258.5 1380.5,1258.5C 1380.5,1272.5 1380.5,1286.5 1380.5,1300.5C 1425.83,1300.5 1471.17,1300.5 1516.5,1300.5C 1516.75,1317.59 1516.41,1334.75 1515.5,1352C 1470.5,1352.5 1425.5,1352.67 1380.5,1352.5C 1380.18,1367.08 1380.51,1381.58 1381.5,1396C 1427.5,1396.5 1473.5,1396.67 1519.5,1396.5C 1519.5,1414.17 1519.5,1431.83 1519.5,1449.5C 1452.5,1449.5 1385.5,1449.5 1318.5,1449.5C 1318.5,1367.5 1318.5,1285.5 1318.5,1203.5 Z"/></g>
<g><path style="opacity:1" fill="#016ad6" d="M 1525.5,1204.5 C 1551,1203.34 1576.66,1203.17 1602.5,1204C 1622.72,1229.21 1642.55,1254.71 1662,1280.5C 1681.71,1254.91 1701.55,1229.41 1721.5,1204C 1746.17,1203.17 1770.84,1203.33 1795.5,1204.5C 1762.95,1245.09 1730.29,1285.59 1697.5,1326C 1729.79,1367.29 1762.45,1408.29 1795.5,1449C 1769.5,1449.67 1743.5,1449.67 1717.5,1449C 1698.69,1424.02 1679.69,1399.19 1660.5,1374.5C 1641.48,1398.86 1622.81,1423.53 1604.5,1448.5C 1578.84,1449.67 1553.17,1449.83 1527.5,1449C 1559.85,1408.66 1592.18,1368.32 1624.5,1328C 1591.85,1286.51 1558.85,1245.34 1525.5,1204.5 Z"/></g>
<g><path style="opacity:1" fill="#016ad6" d="M 1937.5,1371.5 C 1913.66,1371.17 1889.99,1371.5 1866.5,1372.5C 1865.5,1397.99 1865.17,1423.66 1865.5,1449.5C 1844.49,1449.83 1823.49,1449.5 1802.5,1448.5C 1803,1367 1803,1285.34 1802.5,1203.5C 1851.5,1203.33 1900.5,1203.5 1949.5,1204C 1997.39,1209.56 2023.39,1236.56 2027.5,1285C 2026.9,1326.3 2006.9,1353.64 1967.5,1367C 1957.39,1369.7 1947.39,1371.2 1937.5,1371.5 Z"/></g>
<g><path style="opacity:1" fill="#016ad6" d="M 2053.5,1203.5 C 2102.87,1203.51 2152.04,1203.51 2201,1203.5C 2226.76,1206.22 2247.76,1217.89 2264,1238.5C 2279.47,1265.63 2280.47,1293.29 2267,1321.5C 2253.47,1343.1 2234.3,1355.6 2209.5,1359C 2236.17,1389 2262.83,1419 2289.5,1449C 2264.5,1449.67 2239.5,1449.67 2214.5,1449C 2190.4,1420.15 2166.07,1391.48 2141.5,1363C 2140.58,1362.63 2139.75,1362.13 2139,1361.5C 2131.25,1362.48 2123.42,1362.82 2115.5,1362.5C 2115.5,1391.5 2115.5,1420.5 2115.5,1449.5C 2094.83,1449.5 2074.17,1449.5 2053.5,1449.5C 2053.5,1367.5 2053.5,1285.5 2053.5,1203.5 Z"/></g>
<g><path style="opacity:1" fill="#016ad6" d="M 2302.5,1203.5 C 2369.5,1203.17 2436.5,1203.5 2503.5,1204.5C 2502.51,1222.17 2502.18,1240 2502.5,1258C 2456.5,1258.5 2410.5,1258.67 2364.5,1258.5C 2364.5,1272.5 2364.5,1286.5 2364.5,1300.5C 2409.5,1300.5 2454.5,1300.5 2499.5,1300.5C 2499.75,1317.59 2499.41,1334.75 2498.5,1352C 2453.83,1352.5 2409.17,1352.67 2364.5,1352.5C 2364.5,1367.17 2364.5,1381.83 2364.5,1396.5C 2410.83,1396.5 2457.17,1396.5 2503.5,1396.5C 2503.23,1413.93 2502.9,1431.43 2502.5,1449C 2435.83,1449.5 2369.17,1449.67 2302.5,1449.5C 2302.5,1367.5 2302.5,1285.5 2302.5,1203.5 Z"/></g>
<g><path style="opacity:1" fill="#016ad6" d="M 2605.5,1203.5 C 2649.96,1203.18 2694.63,1203.51 2739.5,1204.5C 2731.3,1222.41 2722.96,1240.24 2714.5,1258C 2678.13,1258.17 2641.79,1258.67 2605.5,1259.5C 2588.96,1260.91 2582.46,1269.91 2586,1286.5C 2588.67,1293.84 2593.84,1298.34 2601.5,1300C 2625.41,1300.17 2649.24,1300.67 2673,1301.5C 2694.89,1300.83 2713.56,1308.83 2729,1325.5C 2738.69,1339.08 2743.19,1354.25 2742.5,1371C 2741.69,1416.64 2718.69,1442.81 2673.5,1449.5C 2626.34,1449.49 2579.01,1449.49 2531.5,1449.5C 2531.5,1431.83 2531.5,1414.17 2531.5,1396.5C 2574.21,1396.49 2616.71,1396.49 2659,1396.5C 2678.4,1392.71 2684.4,1381.71 2677,1363.5C 2672.17,1358.67 2666.34,1355.83 2659.5,1355C 2635.93,1354.83 2612.43,1354.33 2589,1353.5C 2553.25,1350.92 2531.92,1331.92 2525,1296.5C 2521,1274.22 2525.67,1253.22 2539,1233.5C 2549.48,1221.68 2562.31,1213.51 2577.5,1209C 2586.87,1206.64 2596.21,1204.81 2605.5,1203.5 Z"/></g>
<g><path style="opacity:1" fill="#016bd6" d="M 2963.5,1202.5 C 2964.76,1202.46 2965.76,1202.96 2966.5,1204C 2965.36,1205.78 2964.36,1207.61 2963.5,1209.5C 2955.85,1225.4 2948.19,1241.4 2940.5,1257.5C 2904.13,1258.17 2867.8,1258.84 2831.5,1259.5C 2814.5,1261.1 2808,1270.43 2812,1287.5C 2815.09,1294.26 2820.26,1298.42 2827.5,1300C 2851.41,1300.17 2875.24,1300.67 2899,1301.5C 2919.67,1301.13 2937.67,1308.47 2953,1323.5C 2957.04,1328.93 2960.54,1334.6 2963.5,1340.5C 2971.44,1361.49 2971.44,1382.49 2963.5,1403.5C 2951.19,1431.02 2929.86,1446.35 2899.5,1449.5C 2852.34,1449.49 2805.01,1449.49 2757.5,1449.5C 2757.5,1431.83 2757.5,1414.17 2757.5,1396.5C 2800.82,1396.47 2843.65,1396.47 2886,1396.5C 2891.25,1395.29 2896.09,1393.12 2900.5,1390C 2903.16,1387.33 2905,1384.16 2906,1380.5C 2907.64,1365.31 2900.81,1356.81 2885.5,1355C 2861.93,1354.83 2838.43,1354.33 2815,1353.5C 2776.28,1350.12 2754.45,1328.95 2749.5,1290C 2746.92,1263.41 2755.59,1241.08 2775.5,1223C 2793.16,1210.66 2812.32,1204.5 2833,1204.5C 2876.6,1203.84 2920.1,1203.17 2963.5,1202.5 Z"/></g>
<g><path style="opacity:1" fill="#fcfdfe" d="M 2963.5,1209.5 C 2963.5,1253.17 2963.5,1296.83 2963.5,1340.5C 2960.54,1334.6 2957.04,1328.93 2953,1323.5C 2937.67,1308.47 2919.67,1301.13 2899,1301.5C 2875.24,1300.67 2851.41,1300.17 2827.5,1300C 2820.26,1298.42 2815.09,1294.26 2812,1287.5C 2808,1270.43 2814.5,1261.1 2831.5,1259.5C 2867.8,1258.84 2904.13,1258.17 2940.5,1257.5C 2948.19,1241.4 2955.85,1225.4 2963.5,1209.5 Z"/></g>
<g><path style="opacity:1" fill="#fdfefe" d="M 2115.5,1258.5 C 2142.22,1258.04 2168.88,1258.54 2195.5,1260C 2213.47,1268.08 2218.31,1280.92 2210,1298.5C 2205.75,1303.37 2200.58,1306.87 2194.5,1309C 2168.22,1310.46 2141.88,1310.96 2115.5,1310.5C 2115.5,1293.17 2115.5,1275.83 2115.5,1258.5 Z"/></g>
<g><path style="opacity:1" fill="#fdfefe" d="M 1865.5,1259.5 C 1891.17,1259.33 1916.84,1259.5 1942.5,1260C 1960.34,1265.84 1967.17,1278 1963,1296.5C 1959.86,1304.97 1954.03,1310.81 1945.5,1314C 1918.88,1315.46 1892.22,1315.96 1865.5,1315.5C 1865.5,1296.83 1865.5,1278.17 1865.5,1259.5 Z"/></g>
<g><path style="opacity:1" fill="#8bc3f1" d="M 1866.5,1372.5 C 1889.99,1371.5 1913.66,1371.17 1937.5,1371.5C 1933.77,1372.2 1929.94,1372.86 1926,1373.5C 1906.18,1373.48 1886.34,1373.14 1866.5,1372.5 Z"/></g>
</svg>
